<svg xmlns="http://www.w3.org/2000/svg" class="svg-logo" width="2400" height="2400" viewBox="0 0 630 430" style="height: auto;"><rect width="630" height="630" y="-100" rx="0" ry="0" fill="#026873" fill-opacity="1"></rect><g data-element="wrapper" transform="translate(-94.50000000000315 -67.75000000000219) scale(1.30000000000001)"><g ><g data-element="icon" transform="scale(0.14166657206824987) translate(1923.5313265931711 1693.2909354066012)"><path id="color_x5F_3_1_" d="M256.675,217.039l-34.627-21.261l-33.936,21.261v-89.443h68.564V217.039z     M561.88,552.298c0,10.517-8.527,19.043-19.044,19.043H256.675v-38.087h240.477c-2.881-8.412-4.976-16.694-6.423-24.764H256.675    h-68.564h-51.032c11.634,25.303,51.032,24.764,51.032,24.764v38.087c0,0-99.209,5.307-99.209-95.224    c0-52.506,42.717-95.223,95.225-95.223h160.138v28.269l33.935-21.262l34.629,21.262v-28.269h130.005    c10.517,0,19.044,8.526,19.044,19.043c0,10.517-8.527,19.043-19.044,19.043h-25.133c-7.308,20.191-19.142,65.817-0.251,114.274    h25.384C553.353,533.255,561.88,541.782,561.88,552.298z M488.64,462.789H128.575c-1.026,4.28-1.586,8.739-1.586,13.329    c0,4.59,0.56,9.049,1.586,13.33H488.4C487.785,480.086,487.953,471.151,488.64,462.789z M497.453,418.981H184.127    c-19.493,0-36.731,9.819-47.048,24.764h354.1C492.947,434.171,495.234,425.798,497.453,418.981z" fill="#f7941e" fill-opacity="1"></path> <path id="color_x5F_2_2_" d="M415.874,190.447H256.675v26.592l-34.627-21.261l-33.936,21.261v-26.592H57.164    c-10.517,0-19.044,8.526-19.044,19.043c0,10.517,8.526,19.043,19.044,19.043h25.168c7.342,20.144,19.211,65.657,0.221,114.275    H57.164c-10.517,0-19.044,8.526-19.044,19.043c0,10.517,8.526,19.043,19.044,19.043h287.102v-38.087H102.848    c2.881-8.412,4.976-16.695,6.423-24.766h234.994h68.565h50.09c-10.774,25.578-50.09,24.766-50.09,24.766v38.087    c0,0,98.267,2.521,98.267-95.224C511.098,233.165,468.38,190.447,415.874,190.447z M108.82,253.299    c-1.768-9.575-4.055-17.949-6.273-24.766h313.327c19.492,0,36.731,9.82,47.047,24.766H108.82z M471.425,299.001H111.599    c0.617-9.361,0.447-18.298-0.24-26.658h360.065c1.027,4.279,1.586,8.739,1.586,13.329    C473.011,290.261,472.452,294.721,471.425,299.001z M256.675,600l-34.627-21.261L188.111,600v-91.509h68.564V600z" fill="#58595b" fill-opacity="1"></path> <path id="color_x5F_1_2_" d="M542.836,152.361h-25.384c-18.891-48.458-7.057-94.083,0.251-114.275h25.133    c10.517,0,19.044-8.526,19.044-19.043C561.88,8.526,553.353,0,542.836,0H184.127C131.62,0,88.902,42.717,88.902,95.224    c0,94.959,99.209,95.224,99.209,95.224v-38.086c0,0-36.339,1.853-51.032-24.765h51.032h68.564h234.054    c1.447,8.071,3.542,16.353,6.423,24.765H256.675v38.086h286.161c10.517,0,19.044-8.526,19.044-19.043    C561.88,160.887,553.353,152.361,542.836,152.361z M488.4,108.553H128.575c-1.026-4.28-1.586-8.739-1.586-13.329    c0-4.59,0.56-9.049,1.586-13.329H488.64C487.953,90.256,487.785,99.192,488.4,108.553z M491.179,62.851h-354.1    c10.317-14.946,27.555-24.765,47.048-24.765h313.326C495.234,44.903,492.947,53.276,491.179,62.851z M412.83,409.164l-34.629-21.262    l-33.935,21.262v-91.121h68.565V409.164z" fill="#1c75bc" fill-opacity="1"></path></g><path d="M199.73 173.68L199.73 172.34L205.62 171.38L205.62 124.78L199.73 123.89L199.73 122.48L219.25 122.48Q226.16 122.48 230.26 123.76Q234.36 125.04 236.21 127.63Q238.07 130.22 238.07 134.45L238.07 134.45Q238.07 143.66 226.42 146.22L226.42 146.22L226.42 146.54Q233.52 147.50 237.46 150.77Q241.40 154.03 241.40 159.86L241.40 159.86Q241.40 166.90 236.24 170.29Q231.09 173.68 222.32 173.68L222.32 173.68L199.73 173.68ZM212.66 146.03L219.76 146.03Q224.88 146.03 227.64 143.15Q230.39 140.27 230.39 134.96L230.39 134.96L230.39 134.58Q230.39 124.08 219.25 124.08L219.25 124.08L212.66 124.08L212.66 146.03ZM212.66 172.14L222.32 172.14Q227.76 172.14 230.77 168.98Q233.78 165.81 233.78 159.92L233.78 159.92L233.78 159.22Q233.78 153.39 230.80 150.51Q227.83 147.63 222.32 147.63L222.32 147.63L212.66 147.63L212.66 172.14ZM264.18 174.32Q259.57 174.32 255.80 172.18Q252.02 170.03 249.81 166.10Q247.60 162.16 247.60 157.10L247.60 157.10Q247.60 152.05 249.81 148.14Q252.02 144.24 255.80 142.10Q259.57 139.95 264.18 139.95L264.18 139.95Q268.79 139.95 272.56 142.10Q276.34 144.24 278.55 148.14Q280.76 152.05 280.76 157.10L280.76 157.10Q280.76 162.16 278.55 166.10Q276.34 170.03 272.56 172.18Q268.79 174.32 264.18 174.32L264.18 174.32ZM264.18 172.91Q268.92 172.91 271.32 169.46Q273.72 166.00 273.72 160.30L273.72 160.30L273.72 153.90Q273.72 148.21 271.32 144.78Q268.92 141.36 264.18 141.36L264.18 141.36Q259.44 141.36 257.04 144.78Q254.64 148.21 254.64 153.90L254.64 153.90L254.64 160.30Q254.64 166.00 257.04 169.46Q259.44 172.91 264.18 172.91L264.18 172.91ZM302.84 174.32Q298.23 174.32 294.45 172.18Q290.68 170.03 288.47 166.10Q286.26 162.16 286.26 157.10L286.26 157.10Q286.26 152.05 288.47 148.14Q290.68 144.24 294.45 142.10Q298.23 139.95 302.84 139.95L302.84 139.95Q307.44 139.95 311.22 142.10Q315.00 144.24 317.20 148.14Q319.41 152.05 319.41 157.10L319.41 157.10Q319.41 162.16 317.20 166.10Q315.00 170.03 311.22 172.18Q307.44 174.32 302.84 174.32L302.84 174.32ZM302.84 172.91Q307.57 172.91 309.97 169.46Q312.37 166.00 312.37 160.30L312.37 160.30L312.37 153.90Q312.37 148.21 309.97 144.78Q307.57 141.36 302.84 141.36L302.84 141.36Q298.10 141.36 295.70 144.78Q293.30 148.21 293.30 153.90L293.30 153.90L293.30 160.30Q293.30 166.00 295.70 169.46Q298.10 172.91 302.84 172.91L302.84 172.91ZM338.16 173.68L323.44 173.68L323.44 172.40L327.92 171.76L327.92 124.40L323.44 123.76L323.44 122.48L334.32 122.48L334.32 155.31L348.98 143.28L343.41 141.81L343.41 140.53L355.44 140.53L355.44 141.81L351.35 143.28L340.72 151.98L355.70 171.82L359.16 172.40L359.16 173.68L344.18 173.68L344.18 172.40L348.02 171.76L335.99 155.89L334.32 157.30L334.32 171.76L338.16 172.40L338.16 173.68ZM366.90 133.10Q365.11 133.10 363.83 131.86Q362.55 130.61 362.55 128.82L362.55 128.82Q362.55 127.02 363.80 125.81Q365.04 124.59 366.90 124.59L366.90 124.59Q368.63 124.59 369.84 125.81Q371.06 127.02 371.06 128.82L371.06 128.82Q371.06 130.61 369.84 131.86Q368.63 133.10 366.90 133.10L366.90 133.10ZM375.48 173.68L360.12 173.68L360.12 172.40L364.60 171.76L364.60 142.51L360.12 141.87L360.12 140.59L371.00 140.59L371.00 171.76L375.48 172.40L375.48 173.68ZM378.55 173.68L378.55 172.40L383.03 171.76L383.03 142.45L378.55 141.81L378.55 140.53L383.03 140.53L383.03 135.15Q383.03 129.01 385.52 125.42Q388.02 121.84 394.04 121.84L394.04 121.84Q397.81 121.84 400.28 123.66Q402.74 125.49 402.74 128.62L402.74 128.62Q402.74 130.54 401.68 131.76Q400.63 132.98 398.84 132.98L398.84 132.98Q397.24 132.98 396.02 131.76Q394.80 130.54 394.80 128.94L394.80 128.94Q396.98 128.30 396.98 125.94L396.98 125.94Q396.98 124.85 396.12 124.05Q395.25 123.25 394.04 123.25L394.04 123.25Q391.54 123.25 390.48 125.58Q389.43 127.92 389.43 133.17L389.43 133.17L389.43 140.53L397.75 140.53L397.75 141.81L389.43 142.45L389.43 171.76L397.04 172.40L397.04 173.68L378.55 173.68ZM406.13 192.37Q402.80 192.37 400.76 190.70Q398.71 189.04 398.71 186.22L398.71 186.22Q398.71 184.30 399.83 183.12Q400.95 181.94 402.61 181.94L402.61 181.94Q403.83 181.94 404.79 182.45Q405.75 182.96 406.32 183.98L406.32 183.98Q405.36 185.33 405.36 186.80L405.36 186.80Q405.36 188.08 406.20 188.91Q407.03 189.74 408.31 189.74L408.31 189.74Q409.84 189.74 410.96 188.72Q412.08 187.70 412.98 185.14L412.98 185.14L416.82 174.13L401.97 142.51L397.68 141.87L397.68 140.59L413.62 140.59L413.62 141.87L409.14 142.64L419.83 165.49L427.44 143.47L421.94 141.87L421.94 140.59L433.46 140.59L433.46 141.87L429.11 143.47L414.77 185.14Q413.43 188.91 411.54 190.64Q409.65 192.37 406.13 192.37L406.13 192.37Z" data-element="company-name" data-text-path="" data-text="Bookify" data-font-family="Prata" fill="#f29f05" fill-opacity="1"></path><path d="M164.25 222.20L164.25 202.55L169.12 202.55Q172.14 202.55 174.33 203.72Q176.52 204.89 177.67 207.10Q178.82 209.32 178.82 212.40L178.82 212.40Q178.82 217.01 176.26 219.60Q173.70 222.20 169.12 222.20L169.12 222.20L164.25 222.20ZM166.41 220.24L169.06 220.24Q172.57 220.24 174.56 218.31Q176.55 216.38 176.55 212.40L176.55 212.40Q176.55 208.40 174.56 206.47Q172.57 204.54 169.06 204.54L169.06 204.54L166.41 204.54L166.41 220.24ZM185.24 222.20L183.29 222.20L183.29 208.72L185.24 208.72L185.24 222.20ZM184.27 206.10Q183.60 206.10 183.16 205.64Q182.71 205.17 182.71 204.51L182.71 204.51Q182.71 203.88 183.16 203.43Q183.60 202.99 184.27 202.99L184.27 202.99Q184.90 202.99 185.36 203.43Q185.82 203.88 185.82 204.54L185.82 204.54Q185.82 205.17 185.36 205.64Q184.90 206.10 184.27 206.10L184.27 206.10ZM200.51 208.72L202.47 208.72L202.47 221.68Q202.47 223.49 201.72 224.92Q200.97 226.34 199.62 227.15Q198.26 227.96 196.53 227.96L196.53 227.96L190.95 227.96L190.95 226.17L196.53 226.17Q198.29 226.17 199.40 224.90Q200.51 223.64 200.51 221.68L200.51 221.68L200.51 220.21Q199.67 221.36 198.46 222.01Q197.25 222.66 195.81 222.66L195.81 222.66Q193.88 222.66 192.36 221.73Q190.83 220.81 189.97 219.17Q189.10 217.53 189.10 215.43L189.10 215.43Q189.10 213.35 189.95 211.73Q190.80 210.10 192.31 209.18Q193.83 208.26 195.76 208.26L195.76 208.26Q197.23 208.26 198.45 208.90Q199.67 209.55 200.51 210.73L200.51 210.73L200.51 208.72ZM195.76 220.87Q197.14 220.87 198.22 220.18Q199.30 219.49 199.90 218.25Q200.51 217.01 200.51 215.46L200.51 215.46Q200.51 213.90 199.90 212.66Q199.30 211.42 198.22 210.73Q197.14 210.04 195.76 210.04L195.76 210.04Q194.40 210.04 193.34 210.73Q192.27 211.42 191.67 212.65Q191.06 213.87 191.06 215.43L191.06 215.43Q191.06 217.01 191.67 218.25Q192.27 219.49 193.34 220.18Q194.40 220.87 195.76 220.87L195.76 220.87ZM209.12 222.20L207.16 222.20L207.16 208.72L209.12 208.72L209.12 222.20ZM208.14 206.10Q207.48 206.10 207.03 205.64Q206.59 205.17 206.59 204.51L206.59 204.51Q206.59 203.88 207.03 203.43Q207.48 202.99 208.14 202.99L208.14 202.99Q208.77 202.99 209.23 203.43Q209.70 203.88 209.70 204.54L209.70 204.54Q209.70 205.17 209.23 205.64Q208.77 206.10 208.14 206.10L208.14 206.10ZM216.49 222.20L214.53 222.20L214.53 210.50L212.23 210.50L212.23 208.72L214.53 208.72L214.53 204.25L216.49 204.25L216.49 208.72L219.60 208.72L219.60 210.50L216.49 210.50L216.49 222.20ZM232.30 208.72L234.26 208.72L234.26 222.20L232.30 222.20L232.30 220.21Q231.47 221.36 230.26 222.01Q229.05 222.66 227.61 222.66L227.61 222.66Q225.68 222.66 224.15 221.73Q222.63 220.81 221.76 219.17Q220.90 217.53 220.90 215.43L220.90 215.43Q220.90 213.35 221.75 211.73Q222.60 210.10 224.11 209.18Q225.62 208.26 227.55 208.26L227.55 208.26Q229.02 208.26 230.24 208.90Q231.47 209.55 232.30 210.73L232.30 210.73L232.30 208.72ZM227.55 220.87Q228.93 220.87 230.01 220.18Q231.09 219.49 231.70 218.25Q232.30 217.01 232.30 215.46L232.30 215.46Q232.30 213.90 231.70 212.66Q231.09 211.42 230.01 210.73Q228.93 210.04 227.55 210.04L227.55 210.04Q226.20 210.04 225.13 210.73Q224.07 211.42 223.46 212.65Q222.86 213.87 222.86 215.43L222.86 215.43Q222.86 217.01 223.46 218.25Q224.07 219.49 225.13 220.18Q226.20 220.87 227.55 220.87L227.55 220.87ZM239.99 222.20L238.03 222.20L238.03 201.29L239.99 201.29L239.99 222.20ZM246.76 222.20L244.80 222.20L244.80 208.72L246.76 208.72L246.76 222.20ZM245.78 206.10Q245.12 206.10 244.67 205.64Q244.23 205.17 244.23 204.51L244.23 204.51Q244.23 203.88 244.67 203.43Q245.12 202.99 245.78 202.99L245.78 202.99Q246.42 202.99 246.88 203.43Q247.34 203.88 247.34 204.54L247.34 204.54Q247.34 205.17 246.88 205.64Q246.42 206.10 245.78 206.10L245.78 206.10ZM250.71 208.72L260.67 208.72L260.67 210.50L252.95 220.41L260.67 220.41L260.67 222.20L250.71 222.20L250.71 220.41L258.43 210.50L250.71 210.50L250.71 208.72ZM269.37 208.26Q271.18 208.26 272.65 209.15Q274.12 210.04 274.96 211.58Q275.79 213.12 275.79 215.02L275.79 215.02Q275.79 215.57 275.76 215.86L275.76 215.86L264.67 215.86Q264.79 217.93 266.03 219.40Q267.27 220.87 269.40 220.87L269.40 220.87Q271.13 220.87 272.26 220.22Q273.40 219.57 274.09 218.42L274.09 218.42L275.65 219.46Q274.70 220.96 273.14 221.81Q271.59 222.66 269.46 222.66L269.46 222.66Q267.50 222.66 265.97 221.73Q264.44 220.81 263.58 219.17Q262.72 217.53 262.72 215.46L262.72 215.46Q262.72 213.38 263.57 211.74Q264.42 210.10 265.93 209.18Q267.44 208.26 269.37 208.26L269.37 208.26ZM264.79 214.25L273.83 214.25Q273.55 212.14 272.42 211.09Q271.30 210.04 269.37 210.04L269.37 210.04Q267.50 210.04 266.30 211.24Q265.11 212.43 264.79 214.25L264.79 214.25ZM290.08 219.89L294.37 208.72L296.21 208.72L288.92 227.96L286.97 227.96L289.10 222.45L283.57 208.72L285.61 208.72L290.08 219.89ZM303.90 222.66Q301.97 222.66 300.44 221.73Q298.92 220.81 298.05 219.16Q297.19 217.50 297.19 215.43L297.19 215.43Q297.19 213.35 298.04 211.73Q298.89 210.10 300.40 209.18Q301.91 208.26 303.84 208.26L303.84 208.26Q305.77 208.26 307.30 209.18Q308.83 210.10 309.69 211.74Q310.55 213.38 310.55 215.46L310.55 215.46Q310.55 217.53 309.70 219.17Q308.85 220.81 307.34 221.73Q305.83 222.66 303.90 222.66L303.90 222.66ZM303.84 220.87Q305.23 220.87 306.31 220.18Q307.39 219.49 307.99 218.25Q308.59 217.01 308.59 215.46L308.59 215.46Q308.59 213.90 307.99 212.66Q307.39 211.42 306.31 210.73Q305.23 210.04 303.84 210.04L303.84 210.04Q302.49 210.04 301.42 210.73Q300.36 211.42 299.75 212.65Q299.15 213.87 299.15 215.43L299.15 215.43Q299.15 217.01 299.75 218.25Q300.36 219.49 301.42 220.18Q302.49 220.87 303.84 220.87L303.84 220.87ZM323.20 208.72L325.15 208.72L325.15 222.20L323.20 222.20L323.20 219.95Q322.51 221.24 321.37 221.95Q320.23 222.66 318.73 222.66L318.73 222.66Q317.32 222.66 316.13 222.08Q314.93 221.50 314.23 220.38Q313.52 219.26 313.52 217.73L313.52 217.73L313.52 208.72L315.48 208.72L315.48 216.87Q315.48 220.87 319.05 220.87L319.05 220.87Q321.12 220.87 322.16 219.40Q323.20 217.93 323.20 215.46L323.20 215.46L323.20 208.72ZM335.41 208.26Q336.10 208.26 336.73 208.46L336.73 208.46L336.73 210.24Q336.13 209.96 335.41 209.96L335.41 209.96Q334.17 209.96 333.10 210.65Q332.04 211.34 331.39 212.65Q330.74 213.96 330.74 215.74L330.74 215.74L330.74 222.20L328.78 222.20L328.78 208.72L330.74 208.72L330.74 211.42Q331.52 209.93 332.71 209.09Q333.91 208.26 335.41 208.26L335.41 208.26ZM351.71 208.26Q353.64 208.26 355.15 209.18Q356.66 210.10 357.51 211.73Q358.36 213.35 358.36 215.43L358.36 215.43Q358.36 217.53 357.50 219.17Q356.63 220.81 355.11 221.73Q353.58 222.66 351.65 222.66L351.65 222.66Q350.21 222.66 349.00 222.01Q347.79 221.36 346.96 220.21L346.96 220.21L346.96 222.20L345.00 222.20L345.00 201.29L346.96 201.29L346.96 210.73Q347.79 209.55 349.02 208.90Q350.24 208.26 351.71 208.26L351.71 208.26ZM351.71 220.87Q353.06 220.87 354.13 220.18Q355.19 219.49 355.80 218.25Q356.40 217.01 356.40 215.43L356.40 215.43Q356.40 213.87 355.80 212.65Q355.19 211.42 354.13 210.73Q353.06 210.04 351.71 210.04L351.71 210.04Q350.33 210.04 349.25 210.73Q348.17 211.42 347.56 212.66Q346.96 213.90 346.96 215.46L346.96 215.46Q346.96 217.01 347.56 218.25Q348.17 219.49 349.25 220.18Q350.33 220.87 351.71 220.87L351.71 220.87ZM367.00 222.66Q365.07 222.66 363.55 221.73Q362.02 220.81 361.15 219.16Q360.29 217.50 360.29 215.43L360.29 215.43Q360.29 213.35 361.14 211.73Q361.99 210.10 363.50 209.18Q365.01 208.26 366.94 208.26L366.94 208.26Q368.87 208.26 370.40 209.18Q371.93 210.10 372.79 211.74Q373.65 213.38 373.65 215.46L373.65 215.46Q373.65 217.53 372.80 219.17Q371.95 220.81 370.44 221.73Q368.93 222.66 367.00 222.66L367.00 222.66ZM366.94 220.87Q368.33 220.87 369.41 220.18Q370.49 219.49 371.09 218.25Q371.70 217.01 371.70 215.46L371.70 215.46Q371.70 213.90 371.09 212.66Q370.49 211.42 369.41 210.73Q368.33 210.04 366.94 210.04L366.94 210.04Q365.59 210.04 364.52 210.73Q363.46 211.42 362.85 212.65Q362.25 213.87 362.25 215.43L362.25 215.43Q362.25 217.01 362.85 218.25Q363.46 219.49 364.52 220.18Q365.59 220.87 366.94 220.87L366.94 220.87ZM382.29 222.66Q380.36 222.66 378.84 221.73Q377.31 220.81 376.45 219.16Q375.58 217.50 375.58 215.43L375.58 215.43Q375.58 213.35 376.43 211.73Q377.28 210.10 378.79 209.18Q380.31 208.26 382.24 208.26L382.24 208.26Q384.17 208.26 385.69 209.18Q387.22 210.10 388.08 211.74Q388.95 213.38 388.95 215.46L388.95 215.46Q388.95 217.53 388.10 219.17Q387.25 220.81 385.74 221.73Q384.22 222.66 382.29 222.66L382.29 222.66ZM382.24 220.87Q383.62 220.87 384.70 220.18Q385.78 219.49 386.38 218.25Q386.99 217.01 386.99 215.46L386.99 215.46Q386.99 213.90 386.38 212.66Q385.78 211.42 384.70 210.73Q383.62 210.04 382.24 210.04L382.24 210.04Q380.88 210.04 379.82 210.73Q378.75 211.42 378.15 212.65Q377.54 213.87 377.54 215.43L377.54 215.43Q377.54 217.01 378.15 218.25Q378.75 219.49 379.82 220.18Q380.88 220.87 382.24 220.87L382.24 220.87ZM402.22 222.20L400.03 222.20L395.31 215.25L393.67 216.84L393.67 222.20L391.71 222.20L391.71 201.29L393.67 201.29L393.67 214.36L399.57 208.72L402.11 208.72L396.67 213.96L402.22 222.20ZM409.02 222.66Q407.06 222.66 405.58 221.82Q404.10 220.99 403.32 219.46L403.32 219.46L405.07 218.60Q406.14 220.87 409.25 220.87L409.25 220.87Q410.75 220.87 411.73 220.32Q412.71 219.78 412.71 218.62L412.71 218.62Q412.71 217.44 411.91 216.87Q411.12 216.29 409.14 216.12L409.14 216.12Q406.37 215.89 405.18 214.88Q403.98 213.87 403.98 212.20L403.98 212.20Q403.98 210.33 405.33 209.29Q406.69 208.26 409.05 208.26L409.05 208.26Q413.05 208.26 414.49 211.42L414.49 211.42L412.74 212.29Q412.25 211.14 411.31 210.59Q410.37 210.04 408.91 210.04L408.91 210.04Q407.41 210.04 406.62 210.59Q405.82 211.14 405.82 212.14L405.82 212.14Q405.82 213.09 406.67 213.68Q407.52 214.28 409.60 214.45L409.60 214.45Q412.16 214.68 413.41 215.70Q414.67 216.72 414.67 218.39L414.67 218.39Q414.67 219.75 413.89 220.71Q413.11 221.68 411.81 222.17Q410.52 222.66 409.02 222.66L409.02 222.66ZM424.05 208.26Q425.47 208.26 426.66 208.83Q427.86 209.41 428.56 210.53Q429.27 211.65 429.27 213.18L429.27 213.18L429.27 222.20L427.31 222.20L427.31 214.04Q427.31 210.04 423.74 210.04L423.74 210.04Q421.66 210.04 420.63 211.51Q419.59 212.98 419.59 215.46L419.59 215.46L419.59 222.20L417.63 222.20L417.63 201.29L419.59 201.29L419.59 210.96Q420.28 209.67 421.42 208.96Q422.56 208.26 424.05 208.26L424.05 208.26ZM438.83 208.26Q440.64 208.26 442.11 209.15Q443.58 210.04 444.42 211.58Q445.25 213.12 445.25 215.02L445.25 215.02Q445.25 215.57 445.22 215.86L445.22 215.86L434.13 215.86Q434.25 217.93 435.49 219.40Q436.73 220.87 438.86 220.87L438.86 220.87Q440.59 220.87 441.72 220.22Q442.86 219.57 443.55 218.42L443.55 218.42L445.11 219.46Q444.16 220.96 442.60 221.81Q441.05 222.66 438.91 222.66L438.91 222.66Q436.96 222.66 435.43 221.73Q433.90 220.81 433.04 219.17Q432.18 217.53 432.18 215.46L432.18 215.46Q432.18 213.38 433.03 211.74Q433.87 210.10 435.39 209.18Q436.90 208.26 438.83 208.26L438.83 208.26ZM434.25 214.25L443.29 214.25Q443.00 212.14 441.88 211.09Q440.76 210.04 438.83 210.04L438.83 210.04Q436.96 210.04 435.76 211.24Q434.57 212.43 434.25 214.25L434.25 214.25ZM450.23 222.20L448.27 222.20L448.27 201.29L450.23 201.29L450.23 222.20ZM458.96 202.58Q457.95 202.58 457.30 203.27Q456.66 203.96 456.66 205.06L456.66 205.06L456.66 208.72L459.77 208.72L459.77 210.50L456.66 210.50L456.66 222.20L454.70 222.20L454.70 210.50L452.97 210.50L452.97 208.72L454.70 208.72L454.70 205.06Q454.70 203.19 455.89 201.99Q457.09 200.80 458.96 200.80L458.96 200.80L459.77 200.80L459.77 202.58L458.96 202.58ZM461.26 222.43Q460.63 222.43 460.18 221.96Q459.74 221.50 459.74 220.84L459.74 220.84Q459.74 220.21 460.18 219.75Q460.63 219.29 461.26 219.29L461.26 219.29Q461.93 219.29 462.39 219.75Q462.85 220.21 462.85 220.87L462.85 220.87Q462.85 221.50 462.39 221.96Q461.93 222.43 461.26 222.43L461.26 222.43Z" data-element="slogan" data-text-path="" data-text="Digitalize your bookshelf." data-font-family="Didact Gothic" fill="#f29f05" fill-opacity="1"></path></g></g></svg>